<svg width="256" height="257" viewBox="0 0 256 257" fill="none" xmlns="http://www.w3.org/2000/svg">
<path d="M149.011 224.145L160.472 242.608H160.551L163.474 224.145H171.328L166.556 254.343H158.712L147.251 235.842H147.172L144.249 254.343H136.395L141.167 224.145H149.011ZM205.374 236.319C205.374 239.229 204.533 242.248 202.852 245.377C201.17 248.5 198.793 250.939 195.722 252.7C192.651 254.46 189.353 255.342 185.826 255.342C181.581 255.342 178.136 254.093 175.487 251.595C172.849 249.1 171.528 245.81 171.528 241.73C171.528 238.364 172.413 235.262 174.187 232.417C175.968 229.569 178.387 227.312 181.444 225.641C184.501 223.973 187.658 223.136 190.911 223.136C193.505 223.136 195.931 223.698 198.189 224.82C200.443 225.943 202.203 227.5 203.469 229.494C204.739 231.484 205.374 233.759 205.374 236.319ZM187.03 247.735C188.849 247.735 190.523 247.234 192.053 246.235C193.594 245.233 194.816 243.94 195.722 242.354C196.627 240.762 197.08 239.191 197.08 237.64C197.08 235.718 196.356 234.088 194.901 232.75C193.447 231.415 191.703 230.746 189.669 230.746C188.097 230.746 186.536 231.175 184.985 232.037C183.441 232.891 182.192 234.037 181.238 235.478C180.294 236.919 179.821 238.522 179.821 240.282C179.821 242.447 180.493 244.228 181.835 245.631C183.184 247.031 184.916 247.735 187.03 247.735ZM215.232 224.145L217.394 243.645H217.472L226.881 224.145H233.129L235.974 243.645H236.053L244.837 224.145H253L238.585 254.343H230.566L228.044 236.84H227.965L219.27 254.343H211.303L207.058 224.145H215.232Z" stroke="#FFD700" stroke-width="3.09093"/>
<path d="M24.966 224.134L31.5815 254.343H23.1955L22.0838 249.1H11.2683L8.33116 254.343H0L16.3878 224.134H24.966ZM14.3839 243.088H20.9171L19.2289 233.467H19.1603L14.3839 243.088Z" fill="#FFD700"/>
<path d="M63.2197 224.134L45.2673 247.686H57.9356L56.8925 254.343H31.0068L49.0417 230.79H37.1832L38.2263 224.134H63.2197Z" fill="#FFD700"/>
<path d="M82.8081 224.134L89.4236 254.343H81.0375L79.9258 249.1H69.1104L66.1732 254.343H57.842L74.2299 224.134H82.8081ZM72.226 243.088H78.7592L77.071 233.467H77.0023L72.226 243.088Z" fill="#FFD700"/>
<path d="M103.59 224.134L115.051 242.608H115.133L118.057 224.134H125.907L121.145 254.343H113.294L101.833 235.828H101.751L98.8276 254.343H90.9768L95.7394 224.134H103.59Z" fill="#FFD700"/>
<path d="M57.2036 197.781C54.9096 197.781 52.9659 197.431 51.3721 196.731C49.7856 196.038 48.502 195.119 47.517 193.966C46.5398 192.825 45.8286 191.523 45.3872 190.06C44.9498 188.598 44.7307 187.114 44.7307 185.611C44.7307 184.871 44.7927 184.072 44.9168 183.219C45.0518 182.369 45.2524 181.527 45.5224 180.695C45.792 179.856 46.124 179.046 46.518 178.262C46.9227 177.478 47.3894 176.789 47.9219 176.195H48.9105L50.4785 177.774C50.7922 178.142 50.9891 178.561 51.0727 179.032C51.1606 179.495 51.0914 179.944 50.865 180.374C50.526 181.078 50.2816 181.939 50.1358 182.949C49.997 183.955 49.9278 184.842 49.9278 185.611C49.9278 186.49 50.0262 187.391 50.2196 188.314C50.4201 189.236 50.7849 190.079 51.3099 190.848C51.8388 191.61 52.5754 192.23 53.5238 192.712C54.4758 193.197 55.7011 193.438 57.2036 193.438C58.4873 193.438 59.4939 193.325 60.2307 193.095C60.9709 192.872 61.5326 192.573 61.9119 192.19C62.2948 191.804 62.5391 191.377 62.6522 190.91C62.7689 190.44 62.8273 189.947 62.8273 189.437V170.363H67.9404V189.863C67.9404 190.797 67.7908 191.734 67.4955 192.668C67.1964 193.613 66.6493 194.455 65.8506 195.206C65.0556 195.961 63.9615 196.578 62.5683 197.055C61.1825 197.541 59.3955 197.781 57.2036 197.781ZM56.1424 172.409C55.3474 172.409 54.6724 172.132 54.1182 171.578C53.5711 171.023 53.2976 170.367 53.2976 169.604C53.2976 168.78 53.5711 168.098 54.1182 167.558C54.6724 167.015 55.3474 166.745 56.1424 166.745C56.9118 166.745 57.5645 167.015 58.097 167.558C58.6368 168.098 58.9103 168.78 58.9103 169.604C58.9103 170.367 58.6368 171.023 58.097 171.578C57.5645 172.132 56.9118 172.409 56.1424 172.409ZM74.0235 192.42C73.1446 192.42 72.0651 192.19 70.7812 191.734C70.8435 191.366 70.8835 191.041 70.898 190.757C70.9093 190.472 70.9453 190.031 71.0001 189.437C71.0549 189.014 71.2408 188.682 71.5509 188.438C71.8646 188.197 72.233 188.073 72.6631 188.073H85.26C85.7193 188.073 85.9456 187.85 85.9456 187.398V161.041H91.0915V187.055C91.0915 187.792 90.9783 188.485 90.7485 189.145C90.5263 189.798 90.2014 190.363 89.7712 190.848C89.3481 191.326 88.8267 191.709 88.2031 191.993C87.5796 192.278 86.8682 192.42 86.073 192.42H74.0235ZM80.0628 184.156H74.9609V167.004H80.0628V184.156ZM79.691 162.963C79.1766 162.963 78.7393 162.887 78.3817 162.733C78.0279 162.573 77.7068 162.401 77.4226 162.216C77.1454 162.026 76.8646 161.844 76.5838 161.665C76.2993 161.475 75.9566 161.355 75.5517 161.3C75.1032 161.245 74.7639 161.38 74.5342 161.705C74.3044 162.029 74.1221 162.478 73.9833 163.047C73.9285 163.018 73.7282 162.941 73.3817 162.817C73.0425 162.686 72.8419 162.606 72.7872 162.577C72.3643 162.405 72.0104 162.208 71.7296 161.986C71.445 161.756 71.3722 161.359 71.5108 160.789C71.7368 159.856 72.149 159.145 72.7471 158.66C73.3416 158.175 74.0672 157.96 74.9207 158.014C75.3985 158.051 75.8215 158.168 76.1863 158.368C76.5617 158.561 76.9121 158.765 77.2366 158.981C77.5612 159.189 77.8966 159.374 78.2357 159.532C78.5751 159.684 78.9435 159.732 79.3483 159.677C79.9971 159.622 80.4095 159.054 80.5845 157.974L82.2767 158.536C83.0462 158.784 83.3453 159.28 83.17 160.02C82.9514 160.928 82.543 161.647 81.9447 162.172C81.3504 162.701 80.5991 162.963 79.691 162.963ZM100.676 192.42H95.5628V161.081H100.676V192.42Z" stroke="#FFD700" stroke-width="3.28527"/>
<path d="M133.87 198.461C131.5 198.461 129.496 198.1 127.852 197.378C126.216 196.663 124.893 195.712 123.881 194.52C122.877 193.335 122.144 191.992 121.685 190.488C121.233 188.984 121.008 187.457 121.008 185.9C121.008 185.14 121.072 184.32 121.203 183.448C121.343 182.568 121.549 181.695 121.82 180.83C122.098 179.969 122.444 179.138 122.858 178.333C123.268 177.532 123.749 176.821 124.302 176.197H125.31L126.935 177.822C127.254 178.205 127.461 178.634 127.552 179.116C127.642 179.597 127.57 180.059 127.341 180.5C126.987 181.233 126.739 182.12 126.589 183.162C126.438 184.196 126.363 185.11 126.363 185.9C126.363 186.814 126.461 187.747 126.664 188.698C126.875 189.642 127.251 190.511 127.792 191.3C128.334 192.094 129.093 192.737 130.079 193.226C131.06 193.726 132.324 193.978 133.87 193.978C135.193 193.978 136.231 193.858 136.984 193.617C137.743 193.384 138.322 193.076 138.714 192.684C139.112 192.293 139.375 191.857 139.496 191.376C139.616 190.887 139.676 190.379 139.676 189.856V170.18H144.941V190.293C144.941 191.255 144.783 192.218 144.475 193.181C144.163 194.151 143.595 195.024 142.775 195.798C141.963 196.569 140.838 197.205 139.406 197.709C137.969 198.209 136.126 198.461 133.87 198.461ZM132.772 172.301C131.959 172.301 131.267 172.015 130.696 171.444C130.124 170.872 129.838 170.191 129.838 169.398C129.838 168.548 130.124 167.844 130.696 167.292C131.267 166.731 131.959 166.449 132.772 166.449C133.561 166.449 134.234 166.731 134.787 167.292C135.348 167.844 135.63 168.548 135.63 169.398C135.63 170.191 135.348 170.872 134.787 171.444C134.234 172.015 133.561 172.301 132.772 172.301Z" fill="#FFD700"/>
<path d="M154.862 192.924H149.597V160.612H154.862V192.924Z" fill="#FFD700"/>
<path d="M161.142 192.925C160.198 192.925 159.115 192.692 157.892 192.218L158.103 189.721C158.133 189.281 158.291 188.961 158.584 188.758C158.885 188.548 159.224 188.442 159.607 188.442H170.318C170.777 188.442 171.149 188.33 171.431 188.096C171.709 187.867 171.852 187.517 171.852 187.043C171.852 186.163 171.755 185.306 171.567 184.471C171.375 183.64 171.206 182.801 171.055 181.959C170.382 177.95 168.069 175.622 164.12 174.979C163.597 174.888 163.161 174.678 162.811 174.347C162.458 174.008 162.353 173.542 162.496 172.948C162.556 172.718 162.631 172.451 162.721 172.151C162.811 171.842 162.894 171.526 162.977 171.203C163.067 170.853 163.172 170.488 163.293 170.105C167.001 170.428 169.957 171.575 172.153 173.55C174.35 175.528 175.696 178.194 176.2 181.553C176.2 181.583 176.234 181.831 176.305 182.29C176.373 182.741 176.459 183.26 176.561 183.839C176.67 184.422 176.76 185.009 176.832 185.599C176.899 186.182 176.937 186.633 176.937 186.953C176.907 188.83 176.369 190.293 175.327 191.346C174.293 192.399 172.988 192.925 171.416 192.925H161.142ZM166.136 166.329C165.324 166.329 164.632 166.043 164.06 165.471C163.488 164.9 163.203 164.219 163.203 163.426C163.203 162.576 163.488 161.872 164.06 161.32C164.632 160.77 165.324 160.492 166.136 160.492C166.926 160.492 167.599 160.77 168.152 161.32C168.712 161.872 168.994 162.576 168.994 163.426C168.994 164.219 168.712 164.9 168.152 165.471C167.599 166.043 166.926 166.329 166.136 166.329Z" fill="#FFD700"/>
<path d="M181.951 192.925C181.037 192.925 179.924 192.692 178.612 192.218C178.672 191.838 178.706 191.503 178.717 191.21C178.736 190.92 178.77 190.469 178.822 189.856C178.882 189.416 179.07 189.07 179.394 188.818C179.713 188.57 180.093 188.442 180.537 188.442H193.534C194.004 188.442 194.241 188.213 194.241 187.75V160.612H199.552V187.389C199.552 188.153 199.431 188.871 199.191 189.54C198.957 190.213 198.623 190.8 198.183 191.3C197.75 191.804 197.209 192.199 196.558 192.489C195.915 192.782 195.182 192.925 194.362 192.925H181.951ZM188.179 184.411H182.914V166.765H188.179V184.411ZM180.763 163.38C180.793 163.181 180.808 162.906 180.808 162.553C180.808 162.203 180.808 161.906 180.808 161.665C180.808 161.286 180.891 161.026 181.064 160.883C181.244 160.733 181.402 160.657 181.545 160.657H181.726C181.553 160.368 181.413 160.041 181.304 159.68C181.203 159.311 181.154 158.833 181.154 158.251C181.154 157.66 181.248 157.092 181.44 156.551C181.628 156.009 181.921 155.524 182.312 155.092C182.711 154.651 183.203 154.302 183.786 154.038C184.377 153.768 185.065 153.632 185.847 153.632C186.547 153.632 187.231 153.805 187.893 154.144C188.555 154.486 189.13 154.903 189.623 155.392C189.593 155.422 189.525 155.52 189.428 155.678C189.326 155.84 189.217 156.009 189.097 156.19C188.984 156.363 188.875 156.521 188.766 156.671C188.664 156.814 188.6 156.897 188.57 156.927C188.367 157.22 188.149 157.363 187.908 157.363C187.765 157.363 187.581 157.295 187.352 157.152C187.111 157.002 186.893 156.878 186.705 156.776C186.513 156.679 186.227 156.626 185.847 156.626C185.355 156.626 184.948 156.818 184.629 157.198C184.305 157.581 184.147 158.063 184.147 158.642C184.147 159.285 184.29 159.777 184.584 160.116C184.873 160.447 185.415 160.612 186.208 160.612H189.713V163.741H182.297C182.064 163.741 181.823 163.707 181.575 163.636C181.323 163.557 181.052 163.471 180.763 163.38Z" fill="#FFD700"/>
<path d="M209.429 192.924H204.164V160.612H209.429V192.924Z" fill="#FFD700"/>
<mask id="mask0_3879_83654" style="mask-type:luminance" maskUnits="userSpaceOnUse" x="64" y="63" width="17" height="51">
<path d="M64.4727 63.6416H80.4247V113.626H64.4727V63.6416Z" fill="white"/>
</mask>
<g mask="url(#mask0_3879_83654)">
<path d="M68.9341 88.507C68.9536 80.3943 72.5755 72.773 78.8724 67.5989C79.8226 66.8179 79.9593 65.4153 79.1783 64.4651C78.4005 63.5182 76.998 63.3815 76.0445 64.1592C68.7193 70.1795 64.5019 79.0471 64.4791 88.4973C64.4531 97.9474 68.625 106.838 75.9208 112.891C76.3374 113.236 76.8385 113.405 77.3364 113.405C77.9775 113.408 78.6153 113.131 79.0579 112.601C79.8421 111.654 79.712 110.251 78.765 109.464C72.4974 104.264 68.9113 96.6229 68.9341 88.507Z" fill="#FFD700"/>
</g>
<path d="M78.0459 88.5305C78.0589 82.481 80.7599 76.7992 85.4557 72.9463C86.4059 72.1653 86.5426 70.7595 85.7615 69.8092C84.9805 68.8623 83.578 68.7224 82.6278 69.5034C76.9037 74.2057 73.6072 81.137 73.5909 88.5208C73.5714 95.9045 76.8321 102.852 82.5301 107.584C82.9467 107.925 83.4478 108.095 83.9457 108.098C84.59 108.098 85.2246 107.825 85.6672 107.291C86.4547 106.347 86.3213 104.941 85.3775 104.157C80.7013 100.278 78.0296 94.5833 78.0459 88.5305Z" fill="#FFD700"/>
<path d="M92.039 78.2854C92.9892 77.5076 93.1259 76.1018 92.3449 75.1516C91.5671 74.2014 90.1613 74.0647 89.2111 74.8457C85.088 78.2333 82.7157 83.2252 82.7027 88.5426C82.6865 93.8599 85.036 98.8648 89.1428 102.272C89.556 102.617 90.0572 102.786 90.5583 102.786C91.1994 102.786 91.8372 102.513 92.2765 101.982C93.064 101.035 92.9339 99.6296 91.9869 98.8453C88.9052 96.2875 87.1447 92.5387 87.1544 88.5523C87.1674 84.5692 88.9442 80.8269 92.039 78.2854Z" fill="#FFD700"/>
<mask id="mask1_3879_83654" style="mask-type:luminance" maskUnits="userSpaceOnUse" x="173" y="63" width="17" height="52">
<path d="M173.728 63.6421H189.433V114.459H173.728V63.6421Z" fill="white"/>
</mask>
<g mask="url(#mask1_3879_83654)">
<path d="M177.77 64.4175C176.823 63.6299 175.421 63.7601 174.633 64.7071C173.849 65.6541 173.979 67.0566 174.926 67.8441C181.197 73.0476 184.78 80.6851 184.76 88.8011C184.741 96.917 181.116 104.538 174.822 109.709C173.872 110.49 173.732 111.893 174.513 112.843C174.952 113.377 175.59 113.653 176.231 113.656C176.729 113.656 177.233 113.491 177.65 113.149C184.975 107.132 189.192 98.261 189.215 88.8108C189.238 79.3639 185.066 70.4702 177.77 64.4175Z" fill="#FFD700"/>
</g>
<path d="M171.161 69.7275C170.211 68.94 168.811 69.0702 168.024 70.0171C167.236 70.9641 167.37 72.3667 168.317 73.1542C172.99 77.0332 175.665 82.728 175.648 88.7775C175.632 94.827 172.931 100.509 168.235 104.365C167.285 105.146 167.148 106.549 167.929 107.499C168.369 108.032 169.007 108.309 169.648 108.312C170.146 108.312 170.65 108.146 171.063 107.805C176.791 103.102 180.084 96.171 180.103 88.7873C180.123 81.4035 176.862 74.4559 171.161 69.7275Z" fill="#FFD700"/>
<path d="M164.552 75.0353C163.601 74.2478 162.202 74.3812 161.415 75.3281C160.63 76.2719 160.761 77.6777 161.708 78.4619C164.786 81.0165 166.547 84.7685 166.537 88.7549C166.527 92.7413 164.747 96.4836 161.655 99.0218C160.705 99.8028 160.565 101.205 161.346 102.156C161.786 102.689 162.423 102.969 163.065 102.969C163.562 102.973 164.067 102.803 164.483 102.462C168.606 99.0772 170.979 94.0853 170.992 88.7647C171.005 83.4473 168.658 78.4424 164.552 75.0353Z" fill="#FFD700"/>
<path d="M141.769 87.5277V97.0396L147.194 97.0559L147.243 77.2575H147.239L106.542 77.1533C106.539 77.1533 106.539 77.1533 106.536 77.1533L106.487 96.9518L111.905 96.9648V87.456C111.915 83.8829 114.834 80.9867 118.413 80.9965C121.99 81.0062 124.896 83.9155 124.886 87.4853V96.9973L128.788 97.007V87.4983C128.797 83.9252 131.716 81.029 135.296 81.0388C138.876 81.0485 141.779 83.9578 141.769 87.5277Z" fill="white"/>
<path d="M155.248 100.707C155.063 100.515 154.819 100.414 154.548 100.414L99.1168 100.274C98.5701 100.274 98.1242 100.714 98.1242 101.254L98.0754 111.108L155.489 111.251L155.535 101.423C155.538 101.143 155.44 100.902 155.251 100.71L155.248 100.707Z" fill="white"/>
<mask id="mask2_3879_83654" style="mask-type:luminance" maskUnits="userSpaceOnUse" x="98" y="113" width="58" height="12">
<path d="M98.7522 113.626H155.401V124.96H98.7522V113.626Z" fill="white"/>
</mask>
<g mask="url(#mask2_3879_83654)">
<path d="M104.815 124.85L148.73 124.961L154.617 114.59L98.928 114.45L104.815 124.85Z" fill="white"/>
</g>
<path d="M151.353 70.9278L151.359 69.3951C151.363 67.5923 149.605 66.1181 147.441 66.1149L106.745 66.0108C104.584 66.0041 102.817 67.4686 102.813 69.2747L102.81 70.8042C102.803 72.6102 104.561 74.0811 106.725 74.0876L147.422 74.1885C149.586 74.1952 151.349 72.7307 151.353 70.9278Z" fill="white"/>
<mask id="mask3_3879_83654" style="mask-type:luminance" maskUnits="userSpaceOnUse" x="97" y="0" width="60" height="64">
<path d="M97.9192 0H156.234V63.642H97.9192V0Z" fill="white"/>
</mask>
<g mask="url(#mask3_3879_83654)">
<path d="M141.372 31.7183C134.437 29.1801 130.988 26.9738 129.247 25.4085L129.254 23.0394C129.895 22.9483 130.526 22.8084 131.144 22.6099C132.355 22.2194 133.507 21.6369 134.558 20.8559C135.443 20.2018 136.234 19.4273 136.904 18.5519C137.653 17.5757 137.47 16.1796 136.494 15.4279C135.515 14.6762 134.119 14.8649 133.37 15.8379C132.95 16.3846 132.462 16.8695 131.909 17.2763C130.337 18.4413 128.407 18.9229 126.478 18.6333C124.542 18.3404 122.833 17.3023 121.671 15.7143C119.266 12.4308 119.963 7.79035 123.224 5.37249C123.702 5.02104 124.213 4.72816 124.747 4.50362C125.879 4.02526 126.413 2.72033 125.934 1.58462C125.459 0.452169 124.148 -0.0782635 123.015 0.400101C122.156 0.761315 121.333 1.22992 120.571 1.79289C115.352 5.66862 114.232 13.0914 118.075 18.3469C119.387 20.1335 121.141 21.4514 123.136 22.2649C123.673 22.483 124.229 22.6424 124.799 22.7791L124.792 25.3532C123.083 26.9152 119.644 29.1248 112.605 31.6565C108.544 33.1209 105.098 35.4021 102.637 38.256C98.9635 42.519 94.3295 49.7107 103.988 62.8446C105.849 62.9455 147.984 62.9455 149.81 62.9455C159.534 49.8637 154.961 42.6491 151.31 38.3634C148.863 35.4997 145.427 33.199 141.372 31.7183Z" fill="white"/>
</g>
</svg>
